<?xml version="1.0" encoding="UTF-8"?>
<svg width="20px" height="20px" version="1.1" viewBox="0 -960 960 960" xmlns="http://www.w3.org/2000/svg">
    <g fill="#222222">
        <path d="m107.06-853.03-51 50.062 183.94 183.94v19.031h-96v72h96v96h-96v72h96v48c0 19.333 7.1354 36.198 21.469 50.531s31.198 21.469 50.531 21.469h48v96h72v-96h96v96h72v-96h19.031l184.03 184.03 49.969-51-154.5-154.59-50.531-50.438-72-72.094-72-71.906-48-48-71.906-72-72.094-72-39.188-39.281-165.75-165.75zm252.94 37.031v96h-18.938l72 72h234.94v234.94l72 72v-18.938h96v-72h-96v-96h96v-72h-96v-48c0-19.333-7.1354-36.198-21.469-50.531s-31.198-21.469-50.531-21.469h-48v-96h-72v96h-96v-96h-72zm125.06 240 90.938 90.938v-90.938h-90.938zm-173.06 28.969 72 72v91.031h91.031l72 72h-235.03v-235.03z"/>
    </g>
</svg>
